<svg aria-hidden="true" style="position: absolute; width: 0; height: 0; overflow: hidden;" version="1.1" xmlns="http://www.w3.org/2000/svg" xmlns:xlink="http://www.w3.org/1999/xlink">
  <defs>
    <symbol id="icon-edit" viewBox="0 0 32 32">
      <path d="M27 0c2.761 0 5 2.239 5 5 0 1.126-0.372 2.164-1 3l-2 2-7-7 2-2c0.836-0.628 1.874-1 3-1zM2 23l-2 9 9-2 18.5-18.5-7-7-18.5 18.5zM22.362 11.362l-14 14-1.724-1.724 14-14 1.724 1.724z"></path>
    </symbol>
    <symbol id="icon-archive" viewBox="0 0 32 32">
      <path d="M26 2h-20l-6 6v21c0 0.552 0.448 1 1 1h30c0.552 0 1-0.448 1-1v-21l-6-6zM16 26l-10-8h6v-6h8v6h6l-10 8zM4.828 6l2-2h18.343l2 2h-22.343z"></path>
    </symbol>
    <symbol id="icon-extract" viewBox="0 0 32 32">
      <path d="M26 2h-20l-6 6v21c0 0.552 0.448 1 1 1h30c0.552 0 1-0.448 1-1v-21l-6-6zM20 20v6h-8v-6h-6l10-8 10 8h-6zM4.828 6l2-2h18.343l2 2h-22.343z"></path>
    </symbol>
    <symbol id="icon-quotes-right" viewBox="0 0 32 32">
      <path d="M25 20c-3.866 0-7-3.134-7-7s3.134-7 7-7 7 3.134 7 7l0.031 1c0 7.732-6.268 14-14 14v-4c2.671 0 5.182-1.040 7.071-2.929 0.364-0.364 0.695-0.75 0.995-1.157-0.357 0.056-0.724 0.086-1.097 0.086zM7 20c-3.866 0-7-3.134-7-7s3.134-7 7-7 7 3.134 7 7l0.031 1c0 7.732-6.268 14-14 14v-4c2.671 0 5.182-1.040 7.071-2.929 0.364-0.364 0.695-0.75 0.995-1.157-0.357 0.056-0.724 0.086-1.097 0.086z"></path>
    </symbol>
    <symbol id="icon-remove" viewBox="0 0 32 32">
      <path d="M4 10v20c0 1.1 0.9 2 2 2h18c1.1 0 2-0.9 2-2v-20h-22zM10 28h-2v-14h2v14zM14 28h-2v-14h2v14zM18 28h-2v-14h2v14zM22 28h-2v-14h2v14z"></path>
      <path d="M26.5 4h-6.5v-2.5c0-0.825-0.675-1.5-1.5-1.5h-7c-0.825 0-1.5 0.675-1.5 1.5v2.5h-6.5c-0.825 0-1.5 0.675-1.5 1.5v2.5h26v-2.5c0-0.825-0.675-1.5-1.5-1.5zM18 4h-6v-1.975h6v1.975z"></path>
    </symbol>
    <symbol id="icon-save" viewBox="0 0 32 32">
      <path d="M23 14l-8 8-8-8h5v-12h6v12zM15 22h-15v8h30v-8h-15zM28 26h-4v-2h4v2z"></path>
    </symbol>
    <symbol id="icon-exit" viewBox="0 0 32 32">
      <path d="M31.708 25.708c-0-0-0-0-0-0l-9.708-9.708 9.708-9.708c0-0 0-0 0-0 0.105-0.105 0.18-0.227 0.229-0.357 0.133-0.356 0.057-0.771-0.229-1.057l-4.586-4.586c-0.286-0.286-0.702-0.361-1.057-0.229-0.13 0.048-0.252 0.124-0.357 0.228 0 0-0 0-0 0l-9.708 9.708-9.708-9.708c-0-0-0-0-0-0-0.105-0.104-0.227-0.18-0.357-0.228-0.356-0.133-0.771-0.057-1.057 0.229l-4.586 4.586c-0.286 0.286-0.361 0.702-0.229 1.057 0.049 0.13 0.124 0.252 0.229 0.357 0 0 0 0 0 0l9.708 9.708-9.708 9.708c-0 0-0 0-0 0-0.104 0.105-0.18 0.227-0.229 0.357-0.133 0.355-0.057 0.771 0.229 1.057l4.586 4.586c0.286 0.286 0.702 0.361 1.057 0.229 0.13-0.049 0.252-0.124 0.357-0.229 0-0 0-0 0-0l9.708-9.708 9.708 9.708c0 0 0 0 0 0 0.105 0.105 0.227 0.18 0.357 0.229 0.356 0.133 0.771 0.057 1.057-0.229l4.586-4.586c0.286-0.286 0.362-0.702 0.229-1.057-0.049-0.13-0.124-0.252-0.229-0.357z"></path>
    </symbol>
    <symbol id="icon-task" viewBox="0 0 32 32">
      <path d="M24.987 0.506c-2.829 0-4.644-0.506-7.558-0.506-9.415 0-13.806 5.362-13.806 10.809 0 3.209 1.52 4.264 4.518 4.264-0.211-0.464-0.591-0.971-0.591-3.251 0-6.375 2.406-8.233 5.489-8.36 0 0-2.529 24.793-9.868 27.767v0.771h9.894l3.376-16h6.183l1.377-4h-6.716l1.623-7.693c1.858 0.38 3.673 0.76 5.235 0.76 1.942 0 3.715-0.591 4.686-5.066-1.182 0.38-2.449 0.506-3.842 0.506z"></path>
    </symbol>
    <symbol id="icon-idea" viewBox="0 0 32 32">
      <path d="M3 0l-3 5v23h8v4h4l4-4h5l9-9v-19h-27zM26 17l-5 5h-5l-4 4v-4h-6v-18h20v13z"></path>
      <path d="M19 8h3v8h-3v-8z"></path>
      <path d="M13 8h3v8h-3v-8z"></path>
    </symbol>
    <symbol id="icon-random" viewBox="0 0 32 32">
      <path d="M8.313 8.646c1.026-1.026 2.688-1.026 3.713-0.001l0.245 0.246 3.159-3.161-0.246-0.246c-1.801-1.803-4.329-2.434-6.638-1.891-0.331-2.037-2.096-3.591-4.224-3.592-2.364 0-4.28 1.92-4.28 4.286 0 2.042 1.425 3.75 3.333 4.182-0.723 2.42-0.133 5.151 1.776 7.062l7.12 7.122 3.156-3.163-7.119-7.121c-1.021-1.023-1.023-2.691 0.006-3.722zM31.96 4.286c0-2.368-1.916-4.286-4.281-4.286-2.164 0-3.952 1.608-4.24 3.695-2.409-0.708-5.118-0.109-7.020 1.794l-7.12 7.122 3.159 3.162 7.118-7.12c1.029-1.030 2.687-1.028 3.709-0.006 1.025 1.026 1.025 2.691-0.001 3.717l-0.244 0.245 3.157 3.164 0.246-0.248c1.889-1.893 2.49-4.586 1.8-6.989 2.098-0.276 3.717-2.074 3.717-4.25zM28.321 23.471c0.566-2.327-0.062-4.885-1.878-6.703l-7.109-7.125-3.159 3.16 7.11 7.125c1.029 1.031 1.027 2.691 0.006 3.714-1.025 1.025-2.688 1.025-3.714-0.001l-0.243-0.243-3.156 3.164 0.242 0.241c1.922 1.925 4.676 2.514 7.105 1.765 0.395 1.959 2.123 3.431 4.196 3.431 2.363 0 4.28-1.917 4.28-4.285 0-2.163-1.599-3.952-3.679-4.244zM19.136 16.521l-7.111 7.125c-1.022 1.024-2.689 1.026-3.717-0.004-1.026-1.028-1.026-2.691-0.001-3.718l0.244-0.243-3.159-3.16-0.242 0.241c-1.836 1.838-2.455 4.432-1.858 6.781-1.887 0.446-3.292 2.145-3.292 4.172-0.001 2.367 1.917 4.285 4.281 4.285 2.034-0.001 3.737-1.419 4.173-3.324 2.334 0.58 4.906-0.041 6.729-1.867l7.109-7.124-3.157-3.163z"></path>
    </symbol>
  </defs>
</svg>
